<?xml version="1.0" standalone="no"?>
<!DOCTYPE svg PUBLIC "-//W3C//DTD SVG 20010904//EN"
 "http://www.w3.org/TR/2001/REC-SVG-20010904/DTD/svg10.dtd">
<svg version="1.0" xmlns="http://www.w3.org/2000/svg"
 width="512.000000pt" height="512.000000pt" viewBox="0 0 512.000000 512.000000"
 preserveAspectRatio="xMidYMid meet">
<metadata>
Created by potrace 1.14, written by Peter Selinger 2001-2017
</metadata>
<g transform="translate(0.000000,512.000000) scale(0.100000,-0.100000)"
fill="#000000" stroke="none">
<path d="M845 5033 c-250 -33 -494 -190 -628 -404 -319 -512 -52 -1171 535
-1323 80 -21 112 -24 223 -21 140 3 230 22 339 70 309 137 513 440 522 775 6
253 -76 467 -246 640 -172 175 -361 259 -595 264 -66 2 -133 1 -150 -1z m330
-187 c242 -82 413 -262 483 -506 22 -77 21 -275 -1 -360 -32 -121 -93 -225
-187 -320 -98 -98 -164 -140 -287 -183 -75 -26 -105 -31 -203 -33 -212 -4
-373 59 -519 205 -93 93 -140 163 -178 269 -31 83 -38 138 -37 267 2 325 240
609 569 680 99 22 265 13 360 -19z"/>
<path d="M880 4640 l0 -80 -120 0 -120 0 0 -136 c0 -163 10 -200 67 -264 57
-64 106 -80 240 -80 150 0 173 -16 173 -117 l0 -43 -124 0 c-143 0 -173 8
-187 50 -11 30 -11 30 -90 30 -89 0 -88 1 -64 -76 25 -79 87 -136 173 -155
l52 -12 0 -79 0 -78 80 0 80 0 0 80 0 80 121 0 121 0 -4 158 c-5 172 -10 193
-70 251 -55 53 -91 64 -238 72 -74 4 -136 7 -137 8 -13 7 -33 70 -33 106 l0
45 125 0 c140 0 178 -11 189 -55 6 -24 9 -25 87 -25 l82 0 -7 38 c-16 100 -95
180 -195 197 l-41 7 0 79 0 79 -80 0 -80 0 0 -80z"/>
<path d="M2180 5034 c-115 -46 -180 -131 -180 -238 0 -77 64 -179 130 -206
l30 -12 0 -227 0 -226 80 -80 80 -80 0 -197 0 -197 -57 -16 c-200 -58 -411
-207 -542 -384 -55 -73 -124 -210 -151 -298 l-22 -73 -197 0 -196 0 -80 80
-80 80 -226 0 -227 0 -12 30 c-7 17 -33 48 -57 69 -152 135 -393 22 -393 -185
0 -134 132 -247 271 -231 73 9 165 77 184 137 6 19 15 20 198 20 l192 0 80
-80 80 -80 217 0 c168 0 218 -3 219 -12 0 -7 1 -43 2 -81 l2 -67 -220 0 -220
0 -80 -80 -80 -80 -192 0 c-168 0 -193 2 -193 16 0 8 -24 39 -53 68 -42 42
-63 56 -106 66 -186 44 -344 -120 -289 -302 14 -46 76 -121 120 -142 46 -24
122 -30 173 -16 53 15 127 76 145 120 l12 30 227 0 226 0 80 80 80 80 197 0
197 0 16 -57 c92 -319 362 -592 683 -693 l72 -23 0 -196 0 -196 -80 -80 -80
-80 0 -227 c0 -218 -1 -227 -20 -233 -11 -4 -34 -18 -51 -32 -105 -89 -117
-236 -27 -338 46 -52 83 -72 149 -81 77 -10 135 11 195 70 68 69 89 148 62
238 -14 48 -76 121 -118 138 l-30 12 0 192 0 191 80 80 80 80 0 220 0 220 77
-2 78 -1 3 -219 2 -219 80 -79 80 -80 0 -191 0 -192 -30 -12 c-44 -18 -105
-92 -120 -145 -14 -51 -8 -127 16 -173 36 -72 134 -132 216 -132 111 0 219 95
235 205 10 77 -13 143 -73 202 -29 29 -60 53 -68 53 -14 0 -16 28 -16 228 l0
227 -80 80 -80 80 0 197 0 197 58 16 c316 91 597 369 693 686 l21 69 197 0
196 0 80 -80 80 -80 222 0 223 0 24 -39 c101 -159 315 -160 411 -2 75 125 13
299 -123 345 -96 33 -176 14 -249 -60 -29 -29 -53 -60 -53 -68 0 -14 -25 -16
-193 -16 l-192 0 -80 80 -80 80 -217 0 c-138 0 -218 4 -219 10 0 6 0 40 -1 78
l0 67 219 3 219 2 79 80 80 80 187 0 188 0 24 -39 c101 -159 315 -160 411 -2
75 125 13 299 -123 345 -96 33 -176 14 -249 -60 -29 -29 -53 -60 -53 -68 0
-14 -28 -16 -228 -16 l-227 0 -80 -80 -80 -80 -196 0 -197 0 -22 72 c-94 311
-363 579 -677 678 l-73 23 0 196 0 196 80 80 80 80 0 226 0 227 30 12 c42 17
104 90 118 138 37 121 -30 257 -146 296 -232 79 -422 -195 -261 -377 21 -24
52 -50 69 -57 l30 -12 0 -192 0 -191 -80 -80 -80 -80 0 -217 c0 -138 -4 -218
-10 -219 -5 0 -37 0 -70 0 -33 0 -64 0 -70 0 -6 1 -10 81 -10 219 l0 217 -80
80 -80 80 0 192 c0 183 1 192 20 198 11 4 34 18 51 32 73 62 104 159 79 248
-14 52 -76 126 -123 150 -34 17 -141 29 -167 19z m93 -163 c29 -11 52 -61 43
-96 -9 -35 -64 -61 -102 -48 -56 19 -68 99 -21 135 25 20 45 22 80 9z m663
-12 c39 -32 17 -123 -32 -135 -43 -11 -92 19 -99 60 -7 37 14 81 43 90 23 6
72 -2 88 -15z m-146 -1449 c331 -94 577 -365 636 -700 29 -166 6 -353 -62
-506 -113 -255 -351 -446 -629 -505 -109 -23 -285 -20 -385 6 -338 88 -590
356 -655 697 -20 106 -13 283 14 380 94 331 342 567 671 638 115 25 304 20
410 -10z m-2437 -459 c29 -11 52 -61 43 -96 -9 -35 -64 -61 -102 -48 -56 19
-68 99 -21 135 25 20 45 22 80 9z m4503 -12 c39 -32 17 -123 -32 -135 -43 -11
-92 19 -99 60 -7 37 14 81 43 90 23 6 72 -2 88 -15z m-4501 -629 c30 -11 48
-53 40 -91 -15 -67 -112 -77 -142 -15 -20 43 -11 81 25 100 33 18 43 19 77 6z
m4501 -11 c39 -32 17 -123 -32 -135 -43 -11 -92 19 -99 60 -7 37 14 81 43 90
23 6 72 -2 88 -15z m-2581 -1909 c30 -11 48 -53 40 -91 -15 -67 -112 -77 -142
-15 -20 43 -11 81 25 100 33 18 43 19 77 6z m661 -11 c39 -32 17 -123 -32
-135 -43 -11 -92 19 -99 60 -7 37 14 81 43 90 23 6 72 -2 88 -15z"/>
<path d="M2480 3200 l0 -80 -80 0 -80 0 0 -560 0 -560 80 0 80 0 0 -80 0 -80
80 0 80 0 0 79 0 78 46 7 c147 20 263 148 270 299 4 89 -15 149 -69 218 -25
32 -29 69 -7 69 4 0 22 28 41 63 31 57 34 69 34 147 0 70 -5 94 -25 135 -48
97 -140 165 -243 180 l-47 7 0 79 0 79 -80 0 -80 0 0 -80z m243 -264 c16 -11
39 -35 52 -54 50 -73 12 -193 -71 -228 -21 -9 -70 -14 -129 -14 l-95 0 0 161
0 161 108 -4 c84 -3 113 -8 135 -22z m5 -486 c92 -66 95 -189 5 -257 -34 -26
-44 -28 -145 -31 l-108 -4 0 162 0 161 105 -2 c98 -1 108 -3 143 -29z"/>
<path d="M4020 5029 c-201 -38 -351 -117 -489 -258 -123 -125 -202 -278 -236
-454 -20 -104 -13 -292 15 -387 88 -308 331 -545 640 -625 95 -25 263 -29 368
-9 372 69 644 350 711 734 16 90 7 267 -19 359 -85 304 -327 543 -627 622 -86
23 -286 33 -363 18z m363 -186 c122 -43 189 -85 282 -178 91 -91 144 -175 182
-290 23 -71 26 -96 27 -215 0 -121 -3 -143 -28 -215 -38 -110 -83 -188 -158
-269 -75 -83 -180 -154 -280 -190 -100 -36 -108 -38 -233 -41 -135 -4 -223 16
-345 77 -122 61 -249 189 -308 308 -62 126 -81 211 -78 350 5 198 69 345 215
490 148 147 306 209 521 205 99 -1 127 -6 203 -32z"/>
<path d="M4066 4704 c-101 -32 -175 -105 -210 -207 -9 -26 -16 -59 -16 -72 0
-24 -2 -25 -80 -25 l-80 0 0 -80 0 -80 80 0 80 0 0 -80 0 -80 -80 0 -80 0 0
-80 0 -80 79 0 79 0 7 -47 c14 -101 84 -194 181 -243 70 -35 196 -35 269 0 95
46 168 144 182 245 l6 45 -81 0 -80 0 -6 -36 c-9 -44 -72 -109 -115 -119 -92
-20 -184 39 -198 126 l-4 29 80 0 81 0 0 80 0 80 -80 0 -80 0 0 80 0 80 80 0
80 0 0 80 0 80 -81 0 -81 0 6 33 c7 38 31 73 70 101 39 30 130 29 173 -2 44
-31 69 -73 72 -119 1 -9 24 -13 82 -13 l81 0 -5 38 c-16 111 -83 205 -182 251
-63 30 -163 36 -229 15z"/>
<path d="M780 1820 c-348 -73 -617 -349 -685 -703 -20 -104 -13 -292 15 -387
129 -451 576 -724 1029 -630 324 68 579 308 671 635 28 100 35 276 15 384 -93
488 -561 802 -1045 701z m333 -155 c208 -43 415 -212 504 -413 39 -89 55 -159
59 -262 12 -343 -196 -626 -531 -726 -63 -19 -230 -25 -315 -12 -134 20 -266
92 -380 207 -146 147 -210 309 -206 521 2 98 7 128 33 203 52 148 140 270 261
359 80 59 209 114 312 131 32 6 226 0 263 -8z"/>
<path d="M914 1498 c-66 -22 -150 -80 -188 -131 -31 -41 -73 -132 -80 -172 -2
-16 -5 -58 -5 -92 l-1 -63 -80 0 -80 0 0 -80 0 -80 80 0 80 0 0 -240 0 -240
280 0 280 0 0 80 0 80 -200 0 -200 0 0 160 0 160 80 0 80 0 0 80 0 80 -80 0
-80 0 0 51 c0 90 19 139 74 195 61 60 104 74 235 74 l91 0 0 80 0 81 -114 -2
c-83 -1 -129 -6 -172 -21z"/>
<path d="M3995 1825 c-239 -48 -453 -195 -578 -396 -324 -520 -41 -1193 558
-1329 100 -23 283 -21 385 3 258 62 474 235 589 472 114 235 119 519 14 744
-114 243 -320 419 -573 491 -98 27 -296 35 -395 15z m380 -179 c114 -36 198
-89 290 -181 91 -91 144 -175 182 -290 23 -71 26 -96 27 -215 0 -121 -3 -143
-28 -215 -38 -110 -83 -188 -158 -269 -147 -162 -336 -239 -563 -232 -181 6
-331 73 -470 211 -87 87 -134 159 -172 263 -31 83 -38 138 -37 267 2 337 261
631 604 688 14 2 75 3 135 2 86 -2 127 -8 190 -29z"/>
<path d="M3843 1444 c-29 -29 -53 -57 -53 -61 0 -5 65 -73 145 -153 101 -101
145 -152 145 -167 0 -22 -4 -23 -80 -23 l-80 0 0 -80 0 -80 80 0 80 0 0 -80 0
-80 -80 0 -80 0 0 -80 0 -80 80 0 80 0 0 -80 0 -80 80 0 80 0 0 80 0 80 80 0
80 0 0 80 0 80 -80 0 -80 0 0 80 0 80 80 0 80 0 0 80 0 80 -80 0 c-76 0 -80 1
-80 23 0 15 45 67 149 171 l148 148 -53 54 c-29 30 -56 54 -60 54 -5 0 -66
-57 -136 -127 l-128 -128 -133 131 -132 132 -52 -54z"/>
</g>
</svg>
